<svg width="229" height="70" viewBox="0 0 229 70" fill="none" xmlns="http://www.w3.org/2000/svg">
<g clip-path="url(#clip0_29066_41224)">
<path d="M220.854 69.1325H8.0477C3.62598 69.1325 0.0268555 65.5008 0.0268555 61.055V8.93273C0.0268555 4.48525 3.62598 0.867188 8.0477 0.867188H220.854C225.274 0.867188 229 4.48525 229 8.93273V61.055C229 65.5008 225.274 69.1325 220.854 69.1325Z" fill="#A6A6A6"/>
<path d="M227.358 61.0593C227.358 64.6705 224.451 67.5957 220.855 67.5957H8.04745C4.45342 67.5957 1.53613 64.6705 1.53613 61.0593V8.93361C1.53613 5.32408 4.45342 2.38867 8.04745 2.38867H220.853C224.451 2.38867 227.356 5.32408 227.356 8.93361L227.358 61.0593Z" fill="#26327C"/>
<path d="M51.1278 34.6319C51.0787 29.1314 55.6038 26.4554 55.8108 26.3309C53.248 22.5711 49.2757 22.0574 47.8798 22.0165C44.5436 21.6632 41.3074 24.0252 39.6079 24.0252C37.8745 24.0252 35.2574 22.0506 32.4368 22.1086C28.8072 22.165 25.4116 24.2795 23.5493 27.563C19.7059 34.2582 22.5723 44.0969 26.2546 49.5086C28.0965 52.159 30.2489 55.1183 33.0661 55.0142C35.8222 54.8999 36.8518 53.2462 40.1778 53.2462C43.4733 53.2462 44.4401 55.0142 47.3133 54.9477C50.2713 54.8999 52.1336 52.2853 53.9111 49.611C56.0397 46.5732 56.8946 43.5815 56.9285 43.4279C56.859 43.404 51.1838 41.2246 51.1278 34.6319Z" fill="white"/>
<path d="M45.6986 18.455C47.181 16.5896 48.1953 14.0519 47.9137 11.4766C45.7681 11.5721 43.0849 12.9699 41.5398 14.7943C40.1727 16.4019 38.9515 19.0369 39.267 21.515C41.6772 21.6959 44.1518 20.2913 45.6986 18.455Z" fill="white"/>
<path d="M91.0161 54.6298H87.1643L85.0543 47.9586H77.7204L75.7105 54.6298H71.9604L79.2265 31.918H83.7144L91.0161 54.6298ZM84.4183 45.1597L82.5102 39.2292C82.3083 38.6233 81.9301 37.1966 81.3721 34.9507H81.3043C81.0821 35.9166 80.7242 37.3434 80.2323 39.2292L78.3581 45.1597H84.4183Z" fill="white"/>
<path d="M109.703 46.2412C109.703 49.0264 108.955 51.228 107.459 52.8442C106.12 54.2829 104.456 55.0014 102.47 55.0014C100.326 55.0014 98.7856 54.2266 97.8477 52.6769H97.7799V61.304H94.1638V43.6454C94.1638 41.8944 94.118 40.0973 94.0298 38.2542H97.21L97.4118 40.85H97.4796C98.6856 38.8942 100.516 37.918 102.972 37.918C104.892 37.918 106.494 38.6808 107.777 40.2083C109.062 41.7374 109.703 43.7478 109.703 46.2412ZM106.019 46.3743C106.019 44.7803 105.663 43.4662 104.948 42.432C104.166 41.3534 103.116 40.8141 101.8 40.8141C100.907 40.8141 100.097 41.1145 99.3725 41.7067C98.6466 42.304 98.1716 43.0839 97.9495 44.0499C97.8375 44.5005 97.7815 44.8691 97.7815 45.1592V47.8898C97.7815 49.0811 98.1445 50.0863 98.8704 50.9072C99.5964 51.728 100.539 52.1376 101.7 52.1376C103.062 52.1376 104.122 51.6086 104.88 50.5539C105.64 49.4975 106.019 48.1049 106.019 46.3743Z" fill="white"/>
<path d="M128.421 46.2412C128.421 49.0264 127.673 51.228 126.176 52.8442C124.838 54.2829 123.174 55.0014 121.188 55.0014C119.044 55.0014 117.504 54.2266 116.567 52.6769H116.5V61.304H112.884V43.6454C112.884 41.8944 112.838 40.0973 112.75 38.2542H115.93L116.132 40.85H116.199C117.404 38.8942 119.234 37.918 121.691 37.918C123.61 37.918 125.212 38.6808 126.498 40.2083C127.779 41.7374 128.421 43.7478 128.421 46.2412ZM124.738 46.3743C124.738 44.7803 124.38 43.4662 123.664 42.432C122.882 41.3534 121.835 40.8141 120.518 40.8141C119.624 40.8141 118.815 41.1145 118.089 41.7067C117.363 42.304 116.89 43.0839 116.667 44.0499C116.557 44.5005 116.5 44.8691 116.5 45.1592V47.8898C116.5 49.0811 116.863 50.0863 117.585 50.9072C118.311 51.7263 119.254 52.1376 120.418 52.1376C121.78 52.1376 122.84 51.6086 123.598 50.5539C124.358 49.4975 124.738 48.1049 124.738 46.3743Z" fill="white"/>
<path d="M149.353 48.2614C149.353 50.1933 148.687 51.7652 147.348 52.9786C145.878 54.3046 143.831 54.9668 141.2 54.9668C138.771 54.9668 136.824 54.4958 135.35 53.552L136.188 50.5193C137.776 51.4853 139.517 51.97 141.415 51.97C142.777 51.97 143.837 51.6593 144.599 51.0415C145.357 50.4237 145.735 49.5943 145.735 48.5601C145.735 47.6385 145.423 46.862 144.797 46.2323C144.175 45.6025 143.135 45.0171 141.683 44.4761C137.731 42.9931 135.757 40.8205 135.757 37.9636C135.757 36.0966 136.449 34.5657 137.835 33.3745C139.216 32.1816 141.057 31.5859 143.361 31.5859C145.415 31.5859 147.121 31.946 148.483 32.6645L147.579 35.6307C146.307 34.9344 144.869 34.5862 143.259 34.5862C141.987 34.5862 140.993 34.9019 140.281 35.53C139.679 36.0914 139.377 36.7758 139.377 37.5865C139.377 38.4841 139.721 39.2265 140.413 39.8102C141.015 40.3495 142.109 40.9332 143.697 41.5629C145.639 42.3497 147.065 43.2695 147.983 44.3242C148.897 45.3755 149.353 46.6913 149.353 48.2614Z" fill="white"/>
<path d="M161.307 40.9811H157.321V48.9323C157.321 50.9547 158.023 51.965 159.431 51.965C160.077 51.965 160.613 51.9087 161.037 51.796L161.137 54.5591C160.425 54.827 159.487 54.9618 158.325 54.9618C156.897 54.9618 155.781 54.5232 154.975 53.6477C154.173 52.7705 153.77 51.2994 153.77 49.2327V40.9777H151.395V38.2471H153.77V35.2485L157.321 34.1699V38.2471H161.307V40.9811Z" fill="white"/>
<path d="M179.292 46.31C179.292 48.8273 178.576 50.894 177.148 52.5102C175.65 54.1741 173.662 55.0036 171.184 55.0036C168.796 55.0036 166.895 54.2066 165.477 52.6126C164.059 51.0186 163.35 49.0065 163.35 46.5813C163.35 44.0436 164.079 41.9649 165.543 40.3487C167.003 38.7308 168.974 37.9219 171.452 37.9219C173.84 37.9219 175.762 38.7189 177.212 40.3146C178.6 41.8625 179.292 43.861 179.292 46.31ZM175.54 46.4277C175.54 44.9174 175.219 43.622 174.57 42.5417C173.812 41.2345 172.728 40.5825 171.323 40.5825C169.87 40.5825 168.766 41.2362 168.008 42.5417C167.358 43.6237 167.037 44.9396 167.037 46.496C167.037 48.0064 167.358 49.3017 168.008 50.3803C168.789 51.6876 169.882 52.3395 171.291 52.3395C172.672 52.3395 173.756 51.6739 174.538 50.3462C175.204 49.2454 175.54 47.9364 175.54 46.4277Z" fill="white"/>
<path d="M191.047 41.4541C190.689 41.3876 190.308 41.3534 189.907 41.3534C188.635 41.3534 187.652 41.8364 186.96 42.8041C186.357 43.6574 186.056 44.736 186.056 46.0381V54.631H182.441L182.475 43.4116C182.475 41.5241 182.429 39.8055 182.339 38.2559H185.489L185.621 41.3893H185.721C186.103 40.3124 186.705 39.4454 187.529 38.7952C188.335 38.2098 189.205 37.918 190.143 37.918C190.477 37.918 190.779 37.9419 191.047 37.9845V41.4541Z" fill="white"/>
<path d="M207.217 45.6692C207.217 46.3211 207.174 46.8707 207.084 47.3195H196.236C196.279 48.9374 196.803 50.1747 197.81 51.028C198.724 51.7909 199.907 52.1732 201.358 52.1732C202.965 52.1732 204.43 51.9155 205.748 51.3984L206.314 53.9242C204.774 54.6 202.956 54.9362 200.858 54.9362C198.334 54.9362 196.353 54.1887 194.912 52.6954C193.473 51.2021 192.752 49.1968 192.752 46.6812C192.752 44.2117 193.422 42.1553 194.764 40.5152C196.168 38.7642 198.066 37.8887 200.454 37.8887C202.8 37.8887 204.576 38.7642 205.782 40.5152C206.737 41.9061 207.217 43.6264 207.217 45.6692ZM203.769 44.7254C203.792 43.6468 203.557 42.715 203.066 41.9283C202.441 40.9162 201.479 40.4111 200.185 40.4111C199.003 40.4111 198.041 40.9043 197.306 41.8941C196.704 42.6809 196.346 43.6247 196.236 44.7237H203.769V44.7254Z" fill="white"/>
<path d="M83.2183 17.9489C83.2183 19.9576 82.6196 21.4696 81.4239 22.4851C80.3163 23.422 78.7423 23.8914 76.7036 23.8914C75.6928 23.8914 74.8277 23.847 74.1035 23.7582V12.7829C75.0482 12.6293 76.0659 12.5508 77.165 12.5508C79.107 12.5508 80.5707 12.9757 81.5579 13.8256C82.6637 14.7865 83.2183 16.1603 83.2183 17.9489ZM81.3441 17.9984C81.3441 16.6962 81.0015 15.6978 80.3163 15.0015C79.6311 14.3069 78.6304 13.9588 77.3125 13.9588C76.7528 13.9588 76.2762 13.9963 75.881 14.0748V22.4185C76.0998 22.4527 76.5001 22.468 77.0819 22.468C78.4421 22.468 79.492 22.0874 80.2315 21.3263C80.971 20.5651 81.3441 19.4558 81.3441 17.9984Z" fill="white"/>
<path d="M93.157 19.7018C93.157 20.9391 92.806 21.9529 92.1038 22.7482C91.3677 23.5657 90.3924 23.9735 89.1746 23.9735C88.0009 23.9735 87.0664 23.5827 86.3693 22.7977C85.6739 22.0143 85.3262 21.0262 85.3262 19.835C85.3262 18.5891 85.684 17.5668 86.4032 16.7733C87.1223 15.9797 88.0891 15.582 89.3069 15.582C90.4806 15.582 91.4236 15.9728 92.1377 16.7562C92.8161 17.5174 93.157 18.5004 93.157 19.7018ZM91.3134 19.7599C91.3134 19.0175 91.154 18.3809 90.8368 17.8501C90.4636 17.2085 89.9328 16.8876 89.2425 16.8876C88.5284 16.8876 87.9856 17.2085 87.6125 17.8501C87.2936 18.3809 87.1359 19.0277 87.1359 19.7923C87.1359 20.5347 87.2953 21.1713 87.6125 21.702C87.9975 22.3437 88.5335 22.6646 89.2255 22.6646C89.9039 22.6646 90.4365 22.3386 90.8198 21.6849C91.1489 21.1439 91.3134 20.5023 91.3134 19.7599Z" fill="white"/>
<path d="M106.481 15.7461L103.98 23.7912H102.351L101.315 20.2977C101.052 19.4256 100.838 18.5586 100.672 17.6985H100.64C100.486 18.5825 100.272 19.4478 99.9971 20.2977L98.8964 23.7912H97.2495L94.897 15.7461H96.7237L97.6277 19.5707C97.8465 20.4752 98.0263 21.337 98.1704 22.1528H98.2027C98.335 21.4804 98.5538 20.6237 98.8624 19.5877L99.9971 15.7478H101.446L102.533 19.5058C102.796 20.4223 103.009 21.3046 103.174 22.1545H103.223C103.344 21.3268 103.525 20.4445 103.766 19.5058L104.736 15.7478H106.481V15.7461Z" fill="white"/>
<path d="M115.696 23.7961H113.919V19.1881C113.919 17.7682 113.383 17.0583 112.307 17.0583C111.78 17.0583 111.354 17.2528 111.024 17.6436C110.696 18.0345 110.53 18.4953 110.53 19.0226V23.7944H108.752V18.0498C108.752 17.3433 108.73 16.577 108.688 15.7476H110.25L110.333 17.0054H110.382C110.589 16.6145 110.898 16.292 111.303 16.0343C111.785 15.7339 112.324 15.582 112.915 15.582C113.661 15.582 114.282 15.8244 114.775 16.3108C115.389 16.9064 115.696 17.7955 115.696 18.9765V23.7961Z" fill="white"/>
<path d="M120.599 23.7932H118.823V12.0566H120.599V23.7932Z" fill="white"/>
<path d="M131.063 19.7018C131.063 20.9391 130.712 21.9529 130.01 22.7482C129.273 23.5657 128.296 23.9735 127.08 23.9735C125.905 23.9735 124.97 23.5827 124.275 22.7977C123.58 22.0143 123.232 21.0262 123.232 19.835C123.232 18.5891 123.59 17.5668 124.309 16.7733C125.028 15.9797 125.995 15.582 127.211 15.582C128.386 15.582 129.328 15.9728 130.043 16.7562C130.722 17.5174 131.063 18.5004 131.063 19.7018ZM129.217 19.7599C129.217 19.0175 129.058 18.3809 128.741 17.8501C128.369 17.2085 127.837 16.8876 127.148 16.8876C126.432 16.8876 125.89 17.2085 125.518 17.8501C125.199 18.3809 125.042 19.0277 125.042 19.7923C125.042 20.5347 125.201 21.1713 125.518 21.702C125.903 22.3437 126.439 22.6646 127.131 22.6646C127.81 22.6646 128.341 22.3386 128.724 21.6849C129.055 21.1439 129.217 20.5023 129.217 19.7599Z" fill="white"/>
<path d="M139.664 23.7909H138.068L137.936 22.8642H137.887C137.341 23.6032 136.562 23.9735 135.551 23.9735C134.797 23.9735 134.186 23.7295 133.726 23.2448C133.309 22.8045 133.101 22.2567 133.101 21.6064C133.101 20.6234 133.508 19.8742 134.327 19.3554C135.144 18.8366 136.294 18.5823 137.775 18.5942V18.4441C137.775 17.3842 137.222 16.8552 136.115 16.8552C135.326 16.8552 134.63 17.0549 134.03 17.4508L133.669 16.2766C134.412 15.8141 135.329 15.582 136.411 15.582C138.501 15.582 139.549 16.6913 139.549 18.91V21.8727C139.549 22.6765 139.588 23.3165 139.664 23.7909ZM137.819 21.0262V19.7855C135.858 19.7513 134.878 20.2923 134.878 21.4068C134.878 21.8266 134.99 22.1406 135.219 22.3505C135.448 22.5605 135.74 22.6646 136.087 22.6646C136.478 22.6646 136.842 22.54 137.175 22.2925C137.509 22.0433 137.714 21.7276 137.79 21.3402C137.809 21.2532 137.819 21.1474 137.819 21.0262Z" fill="white"/>
<path d="M149.764 23.7932H148.186L148.103 22.5012H148.054C147.55 23.4843 146.692 23.9758 145.486 23.9758C144.523 23.9758 143.721 23.5952 143.085 22.834C142.449 22.0729 142.131 21.0847 142.131 19.8713C142.131 18.5692 142.476 17.5145 143.168 16.7089C143.838 15.958 144.659 15.5825 145.635 15.5825C146.709 15.5825 147.46 15.9461 147.888 16.6748H147.922V12.0566H149.701V21.6257C149.701 22.4091 149.721 23.131 149.764 23.7932ZM147.922 20.4004V19.059C147.922 18.8269 147.905 18.6391 147.873 18.4958C147.773 18.0657 147.557 17.7039 147.23 17.4121C146.899 17.1202 146.5 16.9734 146.041 16.9734C145.378 16.9734 144.859 17.238 144.477 17.7687C144.099 18.2995 143.907 18.977 143.907 19.8048C143.907 20.6 144.089 21.2452 144.453 21.7418C144.838 22.2708 145.357 22.5354 146.007 22.5354C146.59 22.5354 147.057 22.3152 147.411 21.8732C147.754 21.4653 147.922 20.9738 147.922 20.4004Z" fill="white"/>
<path d="M164.968 19.7018C164.968 20.9391 164.617 21.9529 163.915 22.7482C163.179 23.5657 162.205 23.9735 160.986 23.9735C159.814 23.9735 158.879 23.5827 158.18 22.7977C157.485 22.0143 157.137 21.0262 157.137 19.835C157.137 18.5891 157.495 17.5668 158.214 16.7733C158.933 15.9797 159.9 15.582 161.12 15.582C162.292 15.582 163.236 15.9728 163.949 16.7562C164.627 17.5174 164.968 18.5004 164.968 19.7018ZM163.126 19.7599C163.126 19.0175 162.967 18.3809 162.65 17.8501C162.275 17.2085 161.746 16.8876 161.054 16.8876C160.341 16.8876 159.798 17.2085 159.424 17.8501C159.105 18.3809 158.947 19.0277 158.947 19.7923C158.947 20.5347 159.106 21.1713 159.424 21.702C159.809 22.3437 160.345 22.6646 161.037 22.6646C161.715 22.6646 162.249 22.3386 162.633 21.6849C162.96 21.1439 163.126 20.5023 163.126 19.7599Z" fill="white"/>
<path d="M174.524 23.7961H172.748V19.1881C172.748 17.7682 172.212 17.0583 171.135 17.0583C170.608 17.0583 170.182 17.2528 169.853 17.6436C169.524 18.0345 169.36 18.4953 169.36 19.0226V23.7944H167.58V18.0498C167.58 17.3433 167.56 16.577 167.518 15.7476H169.078L169.161 17.0054H169.21C169.419 16.6145 169.728 16.292 170.131 16.0343C170.615 15.7339 171.152 15.582 171.744 15.582C172.489 15.582 173.11 15.8244 173.603 16.3108C174.219 16.9064 174.524 17.7955 174.524 18.9765V23.7961Z" fill="white"/>
<path d="M186.485 17.0894H184.528V20.9976C184.528 21.9908 184.876 22.4875 185.564 22.4875C185.883 22.4875 186.148 22.4602 186.356 22.4038L186.402 23.7606C186.051 23.8937 185.59 23.9603 185.021 23.9603C184.319 23.9603 183.773 23.7453 183.378 23.3152C182.981 22.8851 182.784 22.1615 182.784 21.1461V17.0894H181.616V15.7497H182.784V14.2752L184.526 13.7461V15.748H186.484V17.0894H186.485Z" fill="white"/>
<path d="M195.896 23.7932H194.117V19.2194C194.117 17.7773 193.581 17.0554 192.508 17.0554C191.683 17.0554 191.12 17.4735 190.812 18.3097C190.759 18.4855 190.728 18.7006 190.728 18.9531V23.7914H188.953V12.0566H190.728V16.9052H190.762C191.322 16.0229 192.124 15.5825 193.164 15.5825C193.9 15.5825 194.509 15.8249 194.992 16.3113C195.595 16.9171 195.896 17.8182 195.896 19.0095V23.7932Z" fill="white"/>
<path d="M205.603 19.3915C205.603 19.7123 205.579 19.982 205.537 20.2021H200.206C200.23 20.9974 200.484 21.6033 200.978 22.0231C201.429 22.3986 202.011 22.5863 202.723 22.5863C203.512 22.5863 204.231 22.46 204.879 22.2057L205.157 23.4481C204.399 23.7792 203.507 23.9448 202.474 23.9448C201.236 23.9448 200.26 23.5778 199.555 22.844C198.846 22.1101 198.495 21.1254 198.495 19.8898C198.495 18.6764 198.822 17.6661 199.482 16.8605C200.17 16.0004 201.102 15.5703 202.277 15.5703C203.427 15.5703 204.3 16.0004 204.891 16.8605C205.367 17.5432 205.603 18.388 205.603 19.3915ZM203.907 18.929C203.92 18.3982 203.803 17.9408 203.563 17.5551C203.254 17.0585 202.784 16.8093 202.148 16.8093C201.568 16.8093 201.095 17.0517 200.733 17.5381C200.438 17.9255 200.264 18.388 200.206 18.929H203.907Z" fill="white"/>
</g>
<defs>
<clipPath id="clip0_29066_41224">
<rect width="228.973" height="68.2653" fill="white" transform="translate(0.0268555 0.867188)"/>
</clipPath>
</defs>
</svg>
