<svg width="232" height="70" viewBox="0 0 232 70" fill="none" xmlns="http://www.w3.org/2000/svg">
<g clip-path="url(#clip0_29066_41212)">
<path fill-rule="evenodd" clip-rule="evenodd" d="M223.229 69.1325H8.589C3.85524 69.1325 0 65.2851 0 60.5993V9.40035C0 4.69754 3.85524 0.867188 8.589 0.867188H223.229C227.958 0.867188 231.818 4.69754 231.818 9.40035V60.5993C231.818 65.2851 227.958 69.1325 223.229 69.1325Z" fill="#26327C"/>
<path fill-rule="evenodd" clip-rule="evenodd" d="M223.229 2.23335C227.199 2.23335 230.449 5.45509 230.449 9.40035V60.5993C230.449 64.5446 227.22 67.7663 223.229 67.7663H8.589C4.61861 67.7663 1.36895 64.5446 1.36895 60.5993V9.40035C1.36895 5.45509 4.59729 2.23335 8.589 2.23335H223.229ZM223.229 0.867188H8.589C3.85524 0.867188 0 4.71456 0 9.40035V60.5993C0 65.3022 3.85524 69.1325 8.589 69.1325H223.229C227.958 69.1325 231.818 65.3022 231.818 60.5993V9.40035C231.818 4.71456 227.958 0.867188 223.229 0.867188Z" fill="#A6A6A6"/>
<path d="M122.124 23.4478C120.576 23.4478 119.271 22.9073 118.239 21.8433C117.215 20.8091 116.644 19.3833 116.669 17.9278C116.669 16.3744 117.198 15.0593 118.239 14.0166C119.266 12.9526 120.571 12.4121 122.119 12.4121C123.65 12.4121 124.955 12.9526 126.004 14.0166C127.045 15.0934 127.574 16.4084 127.574 17.9278C127.557 19.4855 127.028 20.8006 126.004 21.839C124.977 22.9115 123.672 23.4478 122.124 23.4478ZM76.0612 23.4478C74.5472 23.4478 73.2337 22.9158 72.159 21.8646C71.0929 20.8176 70.5513 19.494 70.5513 17.9321C70.5513 16.3701 71.0929 15.0465 72.159 13.9996C73.2124 12.9484 74.5259 12.4164 76.0612 12.4164C76.8118 12.4164 77.541 12.5653 78.2404 12.8675C78.927 13.1612 79.4857 13.5612 79.8994 14.0506L80.0017 14.1741L78.846 15.3061L78.7266 15.1657C78.0741 14.3911 77.1999 14.0123 76.0441 14.0123C75.0121 14.0123 74.1122 14.3784 73.3702 15.1019C72.6239 15.8296 72.2443 16.783 72.2443 17.9363C72.2443 19.0897 72.6239 20.043 73.3702 20.7708C74.1122 21.4943 75.0121 21.8603 76.0441 21.8603C77.1444 21.8603 78.0698 21.4943 78.7906 20.7708C79.217 20.3452 79.4814 19.7493 79.5753 18.996H75.8693V17.4043H81.166L81.1873 17.549C81.2257 17.8172 81.2641 18.0938 81.2641 18.3491C81.2641 19.8174 80.8205 21.0049 79.942 21.8816C78.9441 22.92 77.6391 23.4478 76.0612 23.4478ZM137.306 23.2222H135.672L130.67 15.2338L130.713 16.6723V23.2179H129.079V12.6419H130.943L130.994 12.7228L135.698 20.2473L135.655 18.813V12.6419H137.306V23.2222ZM109.85 23.2222H108.195V14.2337H105.325V12.6419H112.716V14.2337H109.846V23.2222H109.85ZM103.978 23.2222H102.327V12.6419H103.978V23.2222ZM94.702 23.2222H93.0515V14.2337H90.1814V12.6419H97.5721V14.2337H94.702V23.2222ZM89.1366 23.2052H82.8079V12.6419H89.1366V14.2337H84.4625V17.1362H88.6803V18.7109H84.4625V21.6135H89.1366V23.2052ZM119.45 20.7495C120.187 21.4858 121.083 21.856 122.124 21.856C123.194 21.856 124.068 21.4943 124.798 20.7495C125.523 20.026 125.889 19.0769 125.889 17.9321C125.889 16.7872 125.523 15.8339 124.802 15.1146C124.064 14.3784 123.164 14.0081 122.128 14.0081C121.057 14.0081 120.183 14.3698 119.458 15.1146C118.733 15.8381 118.366 16.7872 118.366 17.9321C118.366 19.0769 118.729 20.0302 119.45 20.7495Z" fill="white"/>
<path fill-rule="evenodd" clip-rule="evenodd" d="M116.513 37.9944C112.483 37.9944 109.216 41.0459 109.216 45.255C109.216 49.4258 112.504 52.5156 116.513 52.5156C120.543 52.5156 123.809 49.4428 123.809 45.255C123.809 41.0459 120.543 37.9944 116.513 37.9944ZM116.513 49.6386C114.308 49.6386 112.41 47.8171 112.41 45.238C112.41 42.6206 114.312 40.8373 116.513 40.8373C118.717 40.8373 120.615 42.6206 120.615 45.238C120.619 47.8341 118.717 49.6386 116.513 49.6386ZM100.593 37.9944C96.5626 37.9944 93.2959 41.0459 93.2959 45.255C93.2959 49.4258 96.5839 52.5156 100.593 52.5156C104.623 52.5156 107.89 49.4428 107.89 45.255C107.89 41.0459 104.619 37.9944 100.593 37.9944ZM100.593 49.6386C98.3879 49.6386 96.4901 47.8171 96.4901 45.238C96.4901 42.6206 98.3921 40.8373 100.593 40.8373C102.798 40.8373 104.695 42.6206 104.695 45.238C104.695 47.8341 102.798 49.6386 100.593 49.6386ZM81.6491 40.2117V43.2845H89.0398C88.8137 45.0081 88.2423 46.2807 87.368 47.1531C86.2848 48.2341 84.6131 49.4088 81.6662 49.4088C77.1243 49.4088 73.5719 45.7487 73.5719 41.2161C73.5719 36.6835 77.1243 33.0234 81.6662 33.0234C84.1184 33.0234 85.9052 33.9895 87.2315 35.2237L89.415 33.0447C87.5727 31.2827 85.1205 29.9336 81.6832 29.9336C75.4526 29.9336 70.2241 34.9982 70.2241 41.1991C70.2241 47.417 75.4483 52.4646 81.6832 52.4646C85.048 52.4646 87.5727 51.3665 89.5686 49.2981C91.6028 47.2681 92.2468 44.4038 92.2468 42.0928C92.2468 41.3736 92.1913 40.7267 92.0762 40.1776H81.6449C81.6491 40.1734 81.6491 40.2117 81.6491 40.2117ZM159.134 42.6035C158.524 40.9735 156.681 37.9773 152.903 37.9773C149.159 37.9773 146.045 40.9182 146.045 45.238C146.045 49.3152 149.124 52.4986 153.265 52.4986C156.592 52.4986 158.528 50.4685 159.325 49.2769L156.856 47.6255C156.037 48.8385 154.899 49.6344 153.282 49.6344C151.649 49.6344 150.506 48.8938 149.747 47.434L159.475 43.4122C159.475 43.4164 159.134 42.6035 159.134 42.6035ZM149.214 45.0294C149.137 42.2248 151.397 40.799 153.014 40.799C154.289 40.799 155.351 41.4246 155.713 42.3354L149.214 45.0294ZM141.312 52.0645H144.506V30.7337H141.312V52.0645ZM136.066 39.6074H135.951C135.23 38.7519 133.861 37.9773 132.113 37.9773C128.483 37.9773 125.14 41.165 125.14 45.2592C125.14 49.3364 128.466 52.4858 132.113 52.4858C133.84 52.4858 135.23 51.707 135.951 50.8345H136.066V51.8772C136.066 54.6479 134.582 56.1417 132.189 56.1417C130.232 56.1417 129.017 54.7372 128.522 53.5626L125.746 54.7202C126.543 56.6354 128.671 59.0059 132.185 59.0059C135.93 59.0059 139.102 56.8056 139.102 51.4389V38.4114H136.083V39.6074C136.087 39.6074 136.066 39.6074 136.066 39.6074ZM132.398 49.6386C130.194 49.6386 128.351 47.8 128.351 45.2592C128.351 42.6972 130.194 40.8416 132.398 40.8416C134.582 40.8416 136.275 42.7184 136.275 45.2592C136.296 47.8 134.586 49.6386 132.398 49.6386ZM174.09 30.7337H166.452V52.0645H169.646V43.9867H174.094C177.629 43.9867 181.105 41.4289 181.105 37.3687C181.105 33.3086 177.642 30.7337 174.09 30.7337ZM174.183 41.0076H169.642V33.6873H174.183C176.576 33.6873 177.928 35.6578 177.928 37.3474C177.928 39.02 176.559 41.0076 174.183 41.0076ZM193.907 37.956C191.588 37.956 189.195 38.9817 188.206 41.2161L191.037 42.3907C191.647 41.2161 192.765 40.816 193.946 40.816C195.601 40.816 197.272 41.8034 197.311 43.5654V43.7909C196.739 43.4675 195.485 42.9738 193.984 42.9738C190.927 42.9738 187.826 44.6421 187.826 47.7703C187.826 50.6345 190.334 52.4731 193.127 52.4731C195.272 52.4731 196.453 51.507 197.191 50.3877H197.306V52.039H200.385V43.8676C200.385 40.0627 197.554 37.956 193.907 37.956ZM193.507 49.6386C192.462 49.6386 190.999 49.1279 190.999 47.8171C190.999 46.1658 192.824 45.5401 194.381 45.5401C195.788 45.5401 196.453 45.8423 197.289 46.2594C197.059 48.1746 195.439 49.6216 193.507 49.6386ZM211.619 38.4114L207.951 47.6639H207.836L204.036 38.4114H200.599L206.301 51.3452L203.051 58.5335H206.377L215.15 38.4114H211.619ZM182.866 52.0645H186.061V30.7337H182.866V52.0645Z" fill="white"/>
<path fill-rule="evenodd" clip-rule="evenodd" d="M17.8434 13.7262C17.3487 14.2582 17.063 15.0711 17.063 16.1351V53.8725C17.063 54.9365 17.3487 55.7494 17.8605 56.2601L17.9927 56.375L39.1794 35.2315V34.7591L17.9756 13.6113L17.8434 13.7262Z" fill="url(#paint0_linear_29066_41212)"/>
<path fill-rule="evenodd" clip-rule="evenodd" d="M46.2277 42.2991L39.1611 35.247V34.7533L46.2277 27.7012L46.3812 27.7948L54.7399 32.5359C57.1324 33.8808 57.1324 36.1024 54.7399 37.4643L46.3812 42.2054L46.2277 42.2991Z" fill="url(#paint1_linear_29066_41212)"/>
<path fill-rule="evenodd" clip-rule="evenodd" d="M46.3833 42.2073L39.1632 35.002L17.8442 56.2774C18.6247 57.1116 19.9339 57.2052 21.3967 56.3923L46.3833 42.2073Z" fill="url(#paint2_linear_29066_41212)"/>
<path fill-rule="evenodd" clip-rule="evenodd" d="M46.3833 27.7935L21.3967 13.6297C19.9339 12.7956 18.6204 12.9105 17.8442 13.7446L39.1632 34.9988L46.3833 27.7935Z" fill="url(#paint3_linear_29066_41212)"/>
<path opacity="0.2" fill-rule="evenodd" clip-rule="evenodd" d="M46.2293 42.0527L21.4133 56.1229C20.0273 56.9188 18.7905 56.8634 17.993 56.1399L17.8608 56.2719L17.993 56.3868C18.7905 57.106 20.0273 57.1656 21.4133 56.3697L46.3999 42.2059L46.2293 42.0527Z" fill="#26327C"/>
<path opacity="0.12" fill-rule="evenodd" clip-rule="evenodd" d="M54.7416 37.2193L46.208 42.054L46.3615 42.2073L54.7202 37.4661C55.9186 36.7852 56.5071 35.8914 56.5071 35.002C56.4346 35.8191 55.8248 36.5937 54.7416 37.2193Z" fill="#26327C"/>
<path opacity="0.25" fill-rule="evenodd" clip-rule="evenodd" d="M21.3959 13.8801L54.7411 32.785C55.8244 33.3936 56.4342 34.1895 56.528 35.0023C56.528 34.1129 55.9395 33.2191 54.7411 32.5382L21.3959 13.6332C19.0034 12.2671 17.063 13.4077 17.063 16.1357V16.3826C17.063 13.6503 19.0034 12.531 21.3959 13.8801Z" fill="white"/>
</g>
<defs>
<linearGradient id="paint0_linear_29066_41212" x1="37.279" y1="15.728" x2="3.3507" y2="24.7867" gradientUnits="userSpaceOnUse">
<stop stop-color="#00A0FF"/>
<stop offset="0.00657" stop-color="#00A1FF"/>
<stop offset="0.2601" stop-color="#00BEFF"/>
<stop offset="0.5122" stop-color="#00D2FF"/>
<stop offset="0.7604" stop-color="#00DFFF"/>
<stop offset="1" stop-color="#00E3FF"/>
</linearGradient>
<linearGradient id="paint1_linear_29066_41212" x1="57.8599" y1="35.0002" x2="16.4802" y2="35.0002" gradientUnits="userSpaceOnUse">
<stop stop-color="#FFE000"/>
<stop offset="0.4087" stop-color="#FFBD00"/>
<stop offset="0.7754" stop-color="#FFA500"/>
<stop offset="1" stop-color="#FF9C00"/>
</linearGradient>
<linearGradient id="paint2_linear_29066_41212" x1="42.4573" y1="38.9227" x2="15.2946" y2="84.7332" gradientUnits="userSpaceOnUse">
<stop stop-color="#FF3A44"/>
<stop offset="1" stop-color="#C31162"/>
</linearGradient>
<linearGradient id="paint3_linear_29066_41212" x1="12.4759" y1="1.17128" x2="24.5942" y2="21.631" gradientUnits="userSpaceOnUse">
<stop stop-color="#32A071"/>
<stop offset="0.0685" stop-color="#2DA771"/>
<stop offset="0.4762" stop-color="#15CF74"/>
<stop offset="0.8009" stop-color="#06E775"/>
<stop offset="1" stop-color="#00F076"/>
</linearGradient>
<clipPath id="clip0_29066_41212">
<rect width="231.818" height="68.2653" fill="white" transform="translate(0 0.867188)"/>
</clipPath>
</defs>
</svg>
